<?xml version="1.0" encoding="UTF-8" standalone="no"?>
<!-- Created with Inkscape (http://www.inkscape.org/) -->

<svg
   width="158.75mm"
   height="158.75mm"
   viewBox="0 0 158.75 158.75"
   version="1.1"
   id="svg1"
   xml:space="preserve"
   xmlns="http://www.w3.org/2000/svg"
   xmlns:svg="http://www.w3.org/2000/svg"><defs
     id="defs1" /><g
     id="layer1"
     transform="translate(-37.570831,-39.158333)"><g
       style="fill:none"
       id="g2"
       transform="matrix(8.8194444,0,0,8.8194444,11.112501,12.700001)"><path
         d="m 4,15 v 3 c 0,1.1046 0.89543,2 2,2 h 3 m 6.2173,0 H 18 c 1.1046,0 2,-0.8954 2,-2 V 15 M 20,9 V 6 C 20,4.89543 19.1046,4 18,4 H 15 M 4,9 V 6 C 4,4.89543 4.89543,4 6,4 h 3"
         stroke="#000000"
         stroke-width="2"
         stroke-linecap="round"
         stroke-linejoin="round"
         id="path1-4" /></g><g
       id="g4"
       transform="matrix(4.5283601,0,0,4.5283601,62.605513,64.193013)"
       style="stroke-width:1.45814;stroke-dasharray:none"><path
         d="M 8.135,12.736 7.371,13.794 A 6.297,6.297 0 1 1 13.281,5 H 12.143 A 5.286,5.286 0 1 0 7.499,12.8 5.201,5.201 0 0 0 8.135,12.736 Z M 11,6 v 6.923 l 1,1.385 V 7 h 10 v 10 h -8.056 l 0.723,1 H 23 V 6 Z m 6.044,17 H 1.956 L 9.5,12.554 Z M 9.5,14.262 3.911,22 H 15.09 Z"
         id="path1-9"
         style="stroke-width:1.45814;stroke-dasharray:none" /><path
         fill="none"
         d="M 0,0 H 24 V 24 H 0 Z"
         id="path2"
         style="stroke-width:1.45814;stroke-dasharray:none" /></g></g></svg>
