<?xml version="1.0" encoding="UTF-8" standalone="no"?>
<!-- Created with Inkscape (http://www.inkscape.org/) -->

<svg
   width="158.75mm"
   height="158.75mm"
   viewBox="0 0 158.75 158.75"
   version="1.1"
   id="svg1"
   xml:space="preserve"
   xmlns="http://www.w3.org/2000/svg"
   xmlns:svg="http://www.w3.org/2000/svg"><defs
     id="defs1" /><g
     id="layer1"
     transform="translate(-37.570831,-39.158333)"><g
       id="g1"
       transform="matrix(6.603228,0,0,6.603228,64.12001,65.70751)"><rect
         width="16"
         height="16"
         id="icon-bound"
         fill="none"
         x="0"
         y="0" /><path
         d="M 14.706,4.206 10.793,0.293 C 10.606,0.106 10.353,0 10.087,0 H 1 V 16 H 15 V 4.916 C 15,4.65 14.894,4.394 14.706,4.206 Z M 13,14 H 3 V 2 h 7 v 3 h 3 z"
         id="path1" /></g><g
       style="fill:none"
       id="g2"
       transform="matrix(8.8194444,0,0,8.8194444,11.112501,12.700001)"><path
         d="m 4,15 v 3 c 0,1.1046 0.89543,2 2,2 h 3 m 6.2173,0 H 18 c 1.1046,0 2,-0.8954 2,-2 V 15 M 20,9 V 6 C 20,4.89543 19.1046,4 18,4 H 15 M 4,9 V 6 C 4,4.89543 4.89543,4 6,4 h 3"
         stroke="#000000"
         stroke-width="2"
         stroke-linecap="round"
         stroke-linejoin="round"
         id="path1-4" /></g></g></svg>
